<?xml version="1.0" encoding="utf-8"?>
<!-- Generator: Adobe Illustrator 22.1.0, SVG Export Plug-In . SVG Version: 6.00 Build 0)  -->
<svg version="1.1" id="Layer_1" xmlns="http://www.w3.org/2000/svg" xmlns:xlink="http://www.w3.org/1999/xlink" x="0px" y="0px"
	 viewBox="0 0 335 80" style="enable-background:new 0 0 335 80;" xml:space="preserve">
<style type="text/css">
	.st0{fill:#003F69;}
	.st1{fill:#00B2EE;}
	.st2{fill:#00A751;}
</style>
<g>
	<path class="st0" d="M226.3,53.8c-3.5-5.8-6.2-9.7-8.2-12.1c-1.1-1.3-2.2-2.4-3.3-3.4c2.2-1.3,4-3,5.4-5.1c2.1-3,3.1-6.6,3.1-10.7
		c0-6-2.1-10.8-6.4-14.4c-4.1-3.5-9.6-5.2-16.5-5.2h-19v66.8H195V42.6h0c3.2,0,5.7,0.4,6.3,0.7c1,0.6,2.3,1.5,3.6,2.9
		c1.4,1.4,3,3.3,4.8,5.7l5.7,9.3l1.8,2.6l0,0c0.3,0.4,0.4,0.6,0.4,0.6l3.4,5.2h16.4l-6-8.1C230.2,59.9,228.5,57.2,226.3,53.8z
		 M209.5,22.4c0,1.6-0.4,2.9-1.1,4.1c-0.7,1.2-1.6,2-2.9,2.6c-1,0.5-4.4,0.9-9.5,0.9H195v-15h0.4c5,0,8.5,0.4,9.8,0.9
		c1.4,0.5,2.5,1.3,3.2,2.4C209.1,19.6,209.5,20.9,209.5,22.4z"/>
	<polygon class="st0" points="303.4,56.9 303.4,43 332.9,43 332.9,29.1 303.4,29.1 303.4,15.6 333.8,15.6 333.8,2.9 290.7,2.9 
		290.7,69.6 334.7,69.6 334.7,56.9 	"/>
	<path class="st0" d="M269,32l-7.7-4c-3.2-1.7-5.5-3.2-6.9-4.6c-1.1-1.2-1.7-2.4-1.7-3.6c0-0.8,0.2-2,2.1-3.2c1.7-1.1,4-1.6,6.8-1.6
		c5.3,0,10.1,1.9,14.8,5.9l3.8,3.2V7.7L279.2,7c-5.2-3.1-11-4.7-17.2-4.7c-6.6,0-12.1,1.7-16.3,5.1c-4.4,3.5-6.6,8.1-6.6,13.7
		c0,3.8,1.2,7.2,3.5,10.1c2.2,2.8,5.8,5.4,10.9,8.2l7.6,4.1c3.7,2,8,5.1,8,8.7c0,1.6-0.7,2.8-2.2,3.9c-1.7,1.3-3.8,1.9-6.5,1.9
		c-6.5,0-12.1-2.7-17-8.3l-4-4.5v18.5l1,0.7c6,4,12.8,6,20.1,6c6.5,0,11.9-1.7,16.1-5.2c4.3-3.5,6.5-8.2,6.5-13.9
		C283.1,43.4,278.4,36.9,269,32z"/>
	<path class="st0" d="M165.2,11.8C158.3,5.3,149.7,2,139.6,2c-10.2,0-18.7,3.3-25.4,9.8c-0.4,0.4-0.8,0.8-1.2,1.2v46.7
		c0.4,0.4,0.7,0.7,1.1,1.1c6.7,6.4,15.1,9.7,25,9.7c10.4,0,19.1-3.2,26-9.6c6.9-6.4,10.4-14.7,10.4-24.5
		C175.5,26.5,172,18.3,165.2,11.8z M155.4,51.5c-4.2,4.1-9.4,6.2-15.8,6.2c-6.3,0-11.5-2-15.6-6c-4.2-4-6.2-9-6.2-15.1
		c0-6.3,2-11.4,6.2-15.4c4.2-4.1,9.4-6,15.9-6c6.2,0,11.3,2,15.5,6.1c4.2,4.1,6.3,9,6.3,15C161.7,42.3,159.6,47.3,155.4,51.5z"/>
	<polygon class="st0" points="97.4,22 97.4,70.2 32.8,70.2 32.8,22 65.2,62.5 	"/>
	<polygon class="st1" points="35.4,2.2 95.7,2.2 65,39.5 	"/>
	<rect x="1.4" y="2.2" class="st2" width="15.7" height="68.1"/>
</g>
</svg>
